# xmcd
#
# Track frame offsets: 
#        150
#        17738
#        31190
#        49145
#        65427
#        79285
#        93546
#        108586
#        121954
#        138311
#        151097
#        167174
#        180866
#        203944
#        217916
#        235846
#        251548
#        270206
#        286190
#        300574
#
# Disc length: 4173 seconds
#
# Revision: 0
# Processed by: cddbd v1.5.2PL0 Copyright (c) Steve Scherf et al.
# Submitted via: ExactAudioCopy v1.1
#
DISCID=05104b14
DTITLE=Various Artist - De Pré Historie - De Jaren '70 - De Ultieme 10 CD Col
DTITLE=lectie - 1972
DYEAR=2018
DGENRE=Top 40
TTITLE0=Elton John - Crocodile Rock
TTITLE1=Gilbert O'Sullivan - Clair
TTITLE2=Mouth and MacNeal - Hello-A
TTITLE3=Vicky Leandros - Après Toi
TTITLE4=The Sweet - Poppa Joe
TTITLE5=Chicory Tip - Son Of My Father
TTITLE6=Earth and Fire - Memories
TTITLE7=Roxy Music - Virginia Plain
TTITLE8=Anarchic System - Pop Corn
TTITLE9=Two Man Sound - Copacabana
TTITLE10=Samantha - Eviva Espana
TTITLE11=The O'Jays - Back Stabbers
TTITLE12=The Temptations - Papa Was A Rollin' Stone
TTITLE13=Looking Glass - Brandy
TTITLE14=Don McLean - Vincent
TTITLE15=Mott The Hoople - All The Young Dudes
TTITLE16=Ralph McTell - Streets Of London
TTITLE17=Louis Neefs - Margrietje
TTITLE18=Freddy Breck - Uberall Auf Der Welt
TTITLE19=Michael Jackson - Ben
EXTD=
EXTT0=
EXTT1=
EXTT2=
EXTT3=
EXTT4=
EXTT5=
EXTT6=
EXTT7=
EXTT8=
EXTT9=
EXTT10=
EXTT11=
EXTT12=
EXTT13=
EXTT14=
EXTT15=
EXTT16=
EXTT17=
EXTT18=
EXTT19=
PLAYORDER=
